<?xml version="1.0" encoding="utf-8"?>
<!-- Generator: Adobe Illustrator 16.2.1, SVG Export Plug-In . SVG Version: 6.00 Build 0)  -->
<!DOCTYPE svg PUBLIC "-//W3C//DTD SVG 1.1//EN" "http://www.w3.org/Graphics/SVG/1.1/DTD/svg11.dtd">
<svg version="1.1" id="Layer_1" xmlns="http://www.w3.org/2000/svg" xmlns:xlink="http://www.w3.org/1999/xlink" x="0px" y="0px"
	 width="124px" height="40px" viewBox="0 0 124 40" enable-background="new 0 0 124 40" xml:space="preserve">
<g>
	<path fill="#FFFFFF" d="M9.578,19.58c-1.395,0-2.607-0.193-3.641-0.579c-1.032-0.387-1.894-0.915-2.582-1.587
		c-0.688-0.673-1.2-1.466-1.536-2.38c-0.337-0.916-0.505-1.902-0.505-2.96V1.242h5.995v10.177c0,0.856,0.206,1.524,0.617,2.003
		c0.411,0.479,0.995,0.718,1.751,0.718c0.755,0,1.339-0.238,1.75-0.718c0.411-0.479,0.617-1.146,0.617-2.003V1.242h5.97v10.832
		c0,1.058-0.181,2.044-0.542,2.96c-0.36,0.914-0.894,1.707-1.6,2.38c-0.705,0.672-1.583,1.2-2.632,1.587
		C12.191,19.387,10.97,19.58,9.578,19.58z"/>
	<path fill="#FFFFFF" d="M19.785,1.242h6.045v12.671h5.92v5.164H19.785V1.242z"/>
	<path fill="#FFFFFF" d="M39.683,19.077h-5.995V6.306h-4.383V1.243h14.761v5.063h-4.383V19.077z"/>
	<path fill="#FFFFFF" d="M45.654,1.242H51.7v17.835h-6.046V1.242z"/>
	<path fill="#FFFFFF" d="M58.828,9.001l0.276,10.076h-5.592V1.242h7.842l3.23,9.598h0.125l2.799-9.598h8.096v17.835H69.76
		l0.176-10.026l-0.15-0.024l-3.324,10.05h-4.234L58.954,9.001H58.828z"/>
	<path fill="#FFFFFF" d="M83.361,1.242h6.373l6.953,17.835h-6.523l-0.934-2.62h-5.668l-0.881,2.62h-6.348L83.361,1.242z
		 M86.461,7.464L85,11.872h2.895L86.461,7.464z"/>
	<path fill="#FFFFFF" d="M104.318,19.077h-5.994V6.306h-4.383V1.243h14.76v5.063h-4.383V19.077z"/>
	<path fill="#FFFFFF" d="M110.289,1.242h12.268v4.987h-6.625v1.537h6.223v4.66h-6.223v1.662h7.053v4.987h-12.695V1.242
		L110.289,1.242z"/>
</g>
<g>
	<path fill="#6D6E70" d="M0.925,29.337c0-1.428,0.252-2.721,0.756-3.879c0.504-1.159,1.192-2.15,2.065-2.975
		c0.873-0.821,1.901-1.455,3.086-1.9c1.184-0.444,2.447-0.667,3.791-0.667c1.376,0,2.678,0.223,3.904,0.667
		c1.226,0.445,2.25,1.046,3.072,1.801l-3.678,4.434c-0.336-0.437-0.756-0.769-1.26-0.994c-0.503-0.228-1.066-0.34-1.688-0.34
		c-0.504,0-0.974,0.088-1.411,0.265c-0.437,0.177-0.817,0.432-1.146,0.768c-0.328,0.337-0.584,0.744-0.77,1.222
		c-0.185,0.479-0.276,1.014-0.276,1.602s0.096,1.111,0.29,1.574c0.192,0.462,0.454,0.859,0.78,1.195
		c0.328,0.336,0.71,0.592,1.146,0.769s0.898,0.265,1.385,0.265c0.688,0,1.28-0.142,1.776-0.428c0.495-0.285,0.886-0.621,1.171-1.008
		l3.678,4.408c-0.806,0.806-1.797,1.447-2.973,1.927s-2.507,0.716-4.002,0.716c-1.344,0-2.607-0.227-3.791-0.68
		c-1.185-0.454-2.213-1.096-3.086-1.928s-1.562-1.822-2.065-2.973S0.925,30.747,0.925,29.337z"/>
	<path fill="#6D6E70" d="M19.722,20.419h7.684c0.873,0,1.741,0.089,2.606,0.265c0.865,0.177,1.638,0.487,2.318,0.933
		c0.68,0.445,1.229,1.041,1.649,1.789c0.419,0.746,0.631,1.684,0.631,2.809c0,1.092-0.27,2.053-0.805,2.884
		c-0.536,0.831-1.307,1.474-2.311,1.929l4.524,7.229h-6.886l-3.417-6.372h-0.176v6.372h-5.819V20.419z M25.492,27.95h1.174
		c0.2,0,0.421-0.017,0.662-0.051c0.242-0.033,0.467-0.104,0.675-0.213s0.383-0.261,0.525-0.453c0.142-0.193,0.212-0.449,0.212-0.77
		s-0.06-0.571-0.176-0.756c-0.116-0.186-0.267-0.323-0.449-0.415c-0.184-0.093-0.384-0.151-0.601-0.177
		c-0.216-0.025-0.417-0.039-0.6-0.039h-1.424L25.492,27.95L25.492,27.95z"/>
	<path fill="#6D6E70" d="M35.893,29.235c0-1.427,0.252-2.715,0.756-3.865s1.196-2.129,2.078-2.936
		c0.881-0.806,1.928-1.428,3.137-1.863c1.209-0.437,2.519-0.654,3.93-0.654s2.72,0.218,3.93,0.654
		c1.209,0.437,2.258,1.059,3.148,1.863c0.89,0.805,1.587,1.784,2.091,2.936c0.504,1.15,0.756,2.438,0.756,3.865
		c0,1.429-0.252,2.729-0.756,3.904c-0.503,1.176-1.201,2.18-2.091,3.012c-0.891,0.83-1.939,1.473-3.148,1.926
		s-2.519,0.681-3.93,0.681s-2.721-0.228-3.93-0.681s-2.255-1.096-3.137-1.926c-0.882-0.832-1.574-1.836-2.078-3.012
		C36.145,31.965,35.893,30.663,35.893,29.235z M42.266,29.235c0,0.588,0.088,1.127,0.265,1.612c0.177,0.487,0.419,0.907,0.729,1.261
		c0.312,0.353,0.685,0.625,1.121,0.817c0.438,0.192,0.907,0.29,1.411,0.29s0.97-0.098,1.397-0.29
		c0.429-0.192,0.803-0.466,1.121-0.817c0.319-0.354,0.567-0.772,0.743-1.261c0.177-0.485,0.266-1.024,0.266-1.612
		c0-0.569-0.089-1.096-0.266-1.573c-0.176-0.479-0.424-0.882-0.743-1.21c-0.318-0.326-0.692-0.584-1.121-0.769
		c-0.428-0.184-0.894-0.276-1.397-0.276c-0.503,0-0.974,0.094-1.411,0.276c-0.437,0.185-0.811,0.441-1.121,0.769
		c-0.311,0.328-0.554,0.73-0.729,1.21C42.354,28.14,42.266,28.665,42.266,29.235z"/>
	<path fill="#6D6E70" d="M63.074,38.757c-0.723,0-1.433-0.062-2.128-0.188c-0.697-0.125-1.369-0.311-2.016-0.553
		s-1.255-0.525-1.826-0.852c-0.57-0.326-1.083-0.689-1.537-1.09l3.652-3.969c0.42,0.452,0.979,0.855,1.675,1.209
		c0.696,0.353,1.415,0.527,2.155,0.527c0.334,0,0.641-0.059,0.918-0.176c0.277-0.118,0.416-0.337,0.416-0.656
		c0-0.168-0.047-0.312-0.139-0.43s-0.256-0.239-0.49-0.365c-0.236-0.126-0.559-0.266-0.971-0.416
		c-0.411-0.15-0.929-0.328-1.55-0.529c-0.604-0.203-1.184-0.441-1.737-0.721c-0.555-0.277-1.046-0.618-1.475-1.021
		c-0.428-0.403-0.769-0.888-1.021-1.451c-0.252-0.562-0.377-1.239-0.377-2.03c0-1.11,0.227-2.054,0.68-2.826
		c0.454-0.774,1.037-1.409,1.751-1.905c0.713-0.496,1.516-0.854,2.405-1.072s1.771-0.327,2.644-0.327
		c1.178,0,2.373,0.227,3.592,0.68c1.217,0.453,2.285,1.108,3.211,1.966l-3.729,3.803c-0.404-0.504-0.896-0.885-1.486-1.146
		c-0.588-0.26-1.115-0.392-1.588-0.392c-0.438,0-0.789,0.063-1.057,0.189c-0.269,0.126-0.404,0.332-0.404,0.617
		c0,0.27,0.139,0.471,0.416,0.604c0.277,0.137,0.729,0.305,1.35,0.506c0.639,0.201,1.311,0.437,2.016,0.705
		c0.705,0.268,1.355,0.617,1.951,1.045c0.596,0.429,1.088,0.953,1.475,1.574c0.385,0.621,0.578,1.395,0.578,2.317
		c0,1.074-0.213,2.011-0.641,2.81c-0.432,0.797-0.992,1.461-1.689,1.988c-0.695,0.529-1.48,0.924-2.354,1.186
		C64.869,38.627,63.98,38.757,63.074,38.757z"/>
	<path fill="#6D6E70" d="M78.111,38.757c-0.723,0-1.432-0.062-2.129-0.188c-0.697-0.127-1.369-0.311-2.016-0.553
		s-1.254-0.525-1.826-0.852c-0.57-0.326-1.082-0.689-1.535-1.09l3.652-3.969c0.42,0.452,0.977,0.855,1.674,1.209
		c0.697,0.353,1.416,0.527,2.154,0.527c0.336,0,0.643-0.059,0.92-0.176c0.277-0.118,0.416-0.337,0.416-0.656
		c0-0.168-0.047-0.312-0.139-0.43c-0.096-0.117-0.26-0.239-0.492-0.365c-0.234-0.126-0.561-0.266-0.969-0.416
		c-0.412-0.15-0.932-0.328-1.553-0.529c-0.604-0.203-1.184-0.441-1.734-0.721c-0.557-0.277-1.047-0.618-1.477-1.021
		c-0.428-0.403-0.768-0.888-1.02-1.451c-0.252-0.562-0.379-1.239-0.379-2.03c0-1.11,0.229-2.054,0.682-2.826
		c0.453-0.774,1.035-1.409,1.75-1.905c0.713-0.496,1.516-0.854,2.404-1.072c0.891-0.219,1.773-0.327,2.646-0.327
		c1.174,0,2.371,0.227,3.59,0.68c1.217,0.453,2.287,1.108,3.211,1.966l-3.729,3.803c-0.402-0.504-0.898-0.885-1.486-1.146
		c-0.588-0.26-1.117-0.392-1.586-0.392c-0.438,0-0.789,0.063-1.059,0.189s-0.402,0.332-0.402,0.617c0,0.27,0.139,0.471,0.416,0.604
		c0.275,0.137,0.725,0.305,1.348,0.506c0.637,0.201,1.309,0.437,2.014,0.705c0.705,0.268,1.357,0.617,1.953,1.045
		c0.596,0.429,1.086,0.953,1.473,1.574s0.58,1.395,0.58,2.317c0,1.074-0.215,2.011-0.643,2.81c-0.428,0.797-0.99,1.461-1.688,1.988
		c-0.697,0.529-1.482,0.924-2.355,1.186C79.908,38.627,79.018,38.757,78.111,38.757z"/>
	<path fill="#6D6E70" d="M93.174,27.296h5.441v4.912h-5.416v6.045h-5.896V20.419h12.043v5.013h-6.172V27.296z"/>
	<path fill="#6D6E70" d="M100.932,20.419h6.047v17.834h-6.047V20.419z"/>
	<path fill="#6D6E70" d="M118.691,38.253h-5.996v-12.77h-4.383V20.42h14.762v5.063h-4.383V38.253z"/>
</g>
</svg>
