<?xml version="1.0" encoding="utf-8"?>
<!-- Generator: Adobe Illustrator 16.2.1, SVG Export Plug-In . SVG Version: 6.00 Build 0)  -->
<!DOCTYPE svg PUBLIC "-//W3C//DTD SVG 1.1//EN" "http://www.w3.org/Graphics/SVG/1.1/DTD/svg11.dtd">
<svg version="1.1" id="Layer_1" xmlns="http://www.w3.org/2000/svg" xmlns:xlink="http://www.w3.org/1999/xlink" x="0px" y="0px"
	 width="123.31px" height="50px" viewBox="0 0 123.31 50" enable-background="new 0 0 123.31 50" xml:space="preserve">
<g>
	<g>
		<path fill="#F27126" d="M9.812,30.823c-1.394,0-2.607-0.193-3.64-0.579s-1.894-0.915-2.582-1.587
			c-0.689-0.672-1.201-1.465-1.537-2.38c-0.336-0.916-0.504-1.902-0.504-2.96V12.485h5.995v10.177c0,0.856,0.206,1.524,0.617,2.003
			s0.995,0.718,1.751,0.718c0.755,0,1.339-0.239,1.75-0.718c0.411-0.479,0.617-1.146,0.617-2.003V12.485h5.97v10.832
			c0,1.058-0.181,2.044-0.542,2.96c-0.361,0.915-0.894,1.708-1.6,2.38c-0.705,0.672-1.583,1.201-2.632,1.587
			S11.205,30.823,9.812,30.823z"/>
		<path fill="#F27126" d="M20.019,12.485h6.045v12.671h5.92v5.164H20.019V12.485z"/>
		<path fill="#F27126" d="M39.918,30.32h-5.995V17.549H29.54v-5.063h14.761v5.063h-4.383V30.32z"/>
		<path fill="#F27126" d="M45.888,12.485h6.046V30.32h-6.046V12.485z"/>
		<path fill="#F27126" d="M59.062,20.244l0.277,10.076h-5.592V12.485h7.842l3.229,9.598h0.125l2.799-9.598h8.096V30.32h-5.844
			l0.176-10.026l-0.15-0.024L66.695,30.32h-4.233l-3.274-10.076H59.062z"/>
		<path fill="#F27126" d="M83.596,12.485h6.373l6.953,17.835h-6.523l-0.934-2.62h-5.668l-0.881,2.62h-6.348L83.596,12.485z
			 M86.695,18.707l-1.461,4.408h2.896L86.695,18.707z"/>
		<path fill="#F27126" d="M104.553,30.32h-5.994V17.549h-4.383v-5.063h14.76v5.063h-4.383V30.32z"/>
		<path fill="#F27126" d="M110.523,12.485h12.268v4.987h-6.625v1.537h6.223v4.66h-6.223v1.662h7.053v4.988h-12.695V12.485z"/>
	</g>
	<g>
		<path fill="#6D6E70" d="M1.16,40.58c0-1.428,0.252-2.721,0.756-3.879c0.504-1.159,1.192-2.15,2.065-2.974
			c0.873-0.822,1.902-1.456,3.086-1.901c1.184-0.444,2.447-0.667,3.791-0.667c1.376,0,2.678,0.223,3.904,0.667
			c1.226,0.445,2.25,1.046,3.073,1.801l-3.678,4.434c-0.336-0.437-0.756-0.769-1.26-0.995c-0.503-0.227-1.066-0.34-1.688-0.34
			c-0.504,0-0.974,0.088-1.411,0.265s-0.818,0.432-1.146,0.768c-0.328,0.337-0.584,0.744-0.769,1.222
			c-0.185,0.479-0.277,1.013-0.277,1.601s0.096,1.112,0.29,1.574c0.193,0.462,0.454,0.86,0.781,1.196
			c0.328,0.336,0.709,0.592,1.146,0.768c0.437,0.177,0.898,0.265,1.385,0.265c0.688,0,1.28-0.142,1.776-0.428
			c0.495-0.285,0.886-0.621,1.171-1.008l3.678,4.408c-0.806,0.806-1.797,1.448-2.973,1.927S12.353,50,10.858,50
			c-1.344,0-2.607-0.227-3.791-0.68c-1.184-0.454-2.213-1.096-3.086-1.927c-0.873-0.832-1.562-1.822-2.065-2.973
			S1.16,41.99,1.16,40.58z"/>
		<path fill="#6D6E70" d="M19.957,31.662h7.683c0.873,0,1.742,0.089,2.607,0.265c0.865,0.177,1.638,0.487,2.318,0.933
			c0.68,0.444,1.229,1.041,1.65,1.788c0.419,0.747,0.63,1.684,0.63,2.809c0,1.092-0.269,2.053-0.804,2.884
			c-0.536,0.831-1.307,1.474-2.311,1.928l4.525,7.229h-6.886l-3.417-6.372h-0.176v6.372h-5.819V31.662z M25.726,39.194H26.9
			c0.2,0,0.421-0.017,0.662-0.051c0.242-0.033,0.467-0.104,0.675-0.214c0.208-0.109,0.383-0.26,0.525-0.453
			c0.142-0.193,0.212-0.449,0.212-0.769s-0.059-0.571-0.175-0.756c-0.117-0.185-0.267-0.323-0.45-0.415
			c-0.183-0.093-0.383-0.151-0.6-0.177c-0.216-0.025-0.417-0.038-0.6-0.038h-1.424V39.194z"/>
		<path fill="#6D6E70" d="M36.128,40.479c0-1.427,0.252-2.716,0.756-3.866c0.503-1.15,1.196-2.129,2.078-2.935
			c0.881-0.806,1.927-1.428,3.136-1.864s2.519-0.654,3.93-0.654s2.72,0.218,3.93,0.654c1.209,0.437,2.258,1.059,3.148,1.864
			s1.587,1.784,2.091,2.935c0.504,1.15,0.756,2.439,0.756,3.866c0,1.428-0.252,2.729-0.756,3.904
			c-0.503,1.176-1.201,2.179-2.091,3.011c-0.89,0.831-1.939,1.473-3.148,1.927c-1.209,0.453-2.519,0.68-3.93,0.68
			s-2.721-0.227-3.93-0.68c-1.209-0.454-2.254-1.096-3.136-1.927c-0.882-0.832-1.575-1.835-2.078-3.011
			C36.38,43.208,36.128,41.906,36.128,40.479z M42.501,40.479c0,0.588,0.088,1.126,0.264,1.612c0.177,0.487,0.419,0.907,0.73,1.26
			c0.311,0.353,0.684,0.626,1.121,0.818c0.437,0.193,0.907,0.29,1.411,0.29c0.504,0,0.97-0.097,1.398-0.29
			c0.428-0.192,0.802-0.466,1.121-0.818c0.319-0.353,0.567-0.772,0.743-1.26c0.177-0.486,0.265-1.024,0.265-1.612
			c0-0.57-0.088-1.096-0.265-1.574c-0.176-0.479-0.424-0.882-0.743-1.209c-0.319-0.327-0.693-0.584-1.121-0.769
			c-0.428-0.184-0.894-0.276-1.398-0.276c-0.503,0-0.974,0.093-1.411,0.276c-0.437,0.185-0.811,0.441-1.121,0.769
			c-0.311,0.327-0.554,0.73-0.73,1.209C42.589,39.383,42.501,39.908,42.501,40.479z"/>
		<path fill="#6D6E70" d="M63.309,50c-0.723,0-1.433-0.062-2.129-0.188c-0.697-0.125-1.369-0.31-2.015-0.552
			c-0.647-0.242-1.255-0.525-1.826-0.852c-0.571-0.326-1.083-0.689-1.537-1.09l3.652-3.969c0.42,0.453,0.978,0.856,1.675,1.209
			c0.696,0.353,1.415,0.528,2.154,0.528c0.334,0,0.641-0.059,0.918-0.176c0.277-0.118,0.416-0.337,0.416-0.656
			c0-0.168-0.047-0.312-0.139-0.43c-0.092-0.117-0.256-0.239-0.49-0.365c-0.236-0.126-0.559-0.266-0.971-0.416
			c-0.411-0.151-0.928-0.328-1.549-0.53c-0.604-0.202-1.184-0.441-1.738-0.72c-0.554-0.277-1.046-0.618-1.474-1.021
			c-0.428-0.404-0.769-0.888-1.021-1.451s-0.377-1.24-0.377-2.031c0-1.11,0.227-2.053,0.68-2.826
			c0.454-0.774,1.037-1.409,1.751-1.905c0.713-0.496,1.515-0.854,2.405-1.072c0.89-0.22,1.771-0.328,2.645-0.328
			c1.176,0,2.373,0.227,3.59,0.68s2.287,1.108,3.211,1.965l-3.727,3.804c-0.404-0.504-0.898-0.886-1.486-1.146
			c-0.588-0.26-1.117-0.391-1.588-0.391c-0.438,0-0.789,0.063-1.057,0.189c-0.27,0.126-0.404,0.332-0.404,0.617
			c0,0.269,0.138,0.47,0.416,0.604c0.277,0.136,0.727,0.304,1.348,0.505c0.639,0.201,1.311,0.437,2.016,0.705
			s1.355,0.617,1.951,1.045c0.596,0.429,1.088,0.953,1.475,1.574c0.385,0.622,0.578,1.395,0.578,2.318
			c0,1.074-0.213,2.011-0.641,2.809c-0.43,0.798-0.992,1.461-1.689,1.989c-0.695,0.529-1.48,0.924-2.354,1.185
			C65.104,49.87,64.215,50,63.309,50z"/>
		<path fill="#6D6E70" d="M78.346,50c-0.723,0-1.432-0.062-2.129-0.188s-1.369-0.31-2.016-0.552s-1.254-0.525-1.826-0.852
			c-0.57-0.326-1.082-0.689-1.535-1.09l3.652-3.969c0.42,0.453,0.977,0.856,1.674,1.209s1.416,0.528,2.154,0.528
			c0.336,0,0.643-0.059,0.92-0.176c0.277-0.118,0.416-0.337,0.416-0.656c0-0.168-0.047-0.312-0.139-0.43
			c-0.094-0.117-0.258-0.239-0.492-0.365s-0.559-0.266-0.969-0.416c-0.412-0.151-0.93-0.328-1.551-0.53
			c-0.604-0.202-1.184-0.441-1.736-0.72c-0.555-0.277-1.047-0.618-1.475-1.021c-0.428-0.404-0.768-0.888-1.02-1.451
			s-0.379-1.24-0.379-2.031c0-1.11,0.229-2.053,0.682-2.826c0.453-0.774,1.035-1.409,1.75-1.905
			c0.713-0.496,1.516-0.854,2.404-1.072c0.891-0.22,1.773-0.328,2.646-0.328c1.174,0,2.371,0.227,3.59,0.68
			c1.217,0.453,2.287,1.108,3.211,1.965l-3.729,3.804c-0.402-0.504-0.898-0.886-1.486-1.146c-0.588-0.26-1.117-0.391-1.586-0.391
			c-0.438,0-0.789,0.063-1.059,0.189c-0.268,0.126-0.402,0.332-0.402,0.617c0,0.269,0.139,0.47,0.416,0.604
			c0.275,0.136,0.725,0.304,1.348,0.505c0.637,0.201,1.309,0.437,2.014,0.705s1.357,0.617,1.953,1.045
			c0.596,0.429,1.086,0.953,1.473,1.574c0.387,0.622,0.58,1.395,0.58,2.318c0,1.074-0.215,2.011-0.643,2.809
			s-0.99,1.461-1.688,1.989c-0.697,0.529-1.482,0.924-2.355,1.185C80.143,49.87,79.252,50,78.346,50z"/>
		<path fill="#6D6E70" d="M93.408,38.539h5.441v4.912h-5.416v6.045h-5.895V31.662H99.58v5.013h-6.172V38.539z"/>
		<path fill="#6D6E70" d="M101.166,31.662h6.047v17.834h-6.047V31.662z"/>
		<path fill="#6D6E70" d="M118.926,49.496h-5.996V36.726h-4.383v-5.063h14.762v5.063h-4.383V49.496z"/>
	</g>
	<polygon fill-rule="evenodd" clip-rule="evenodd" fill="#6D6E70" points="18.205,10.977 19.573,5.393 16.923,6.584 15.734,1.555 
		12.806,4.725 9.237,0 6.95,5.001 3.579,2.099 2.553,6.496 0.001,5.859 1.459,10.977 	"/>
</g>
</svg>
