<?xml version="1.0" encoding="utf-8"?>
<!-- Generator: Adobe Illustrator 16.2.1, SVG Export Plug-In . SVG Version: 6.00 Build 0)  -->
<!DOCTYPE svg PUBLIC "-//W3C//DTD SVG 1.1//EN" "http://www.w3.org/Graphics/SVG/1.1/DTD/svg11.dtd">
<svg version="1.1" id="Layer_1" xmlns="http://www.w3.org/2000/svg" xmlns:xlink="http://www.w3.org/1999/xlink" x="0px" y="0px"
	 width="40px" height="50px" viewBox="0 0 40 50" enable-background="new 0 0 40 50" xml:space="preserve">
<g>
	<g>
		<g>
			<path fill="#F27126" d="M20.088,50c-2.238,0-4.186-0.31-5.844-0.931c-1.658-0.62-3.04-1.469-4.145-2.547
				c-1.106-1.078-1.928-2.352-2.467-3.822c-0.54-1.469-0.809-3.053-0.809-4.752V20.561h9.624v16.337c0,1.376,0.33,2.447,0.99,3.216
				c0.661,0.768,1.599,1.151,2.812,1.151s2.149-0.384,2.81-1.151c0.661-0.769,0.992-1.84,0.992-3.216V20.561h9.583v17.388
				c0,1.699-0.289,3.283-0.869,4.752c-0.58,1.471-1.436,2.744-2.567,3.822c-1.133,1.078-2.542,1.927-4.227,2.547
				C24.287,49.69,22.326,50,20.088,50z"/>
		</g>
	</g>
	<polygon fill-rule="evenodd" clip-rule="evenodd" fill="#F27126" points="33.704,17.875 35.932,8.779 31.618,10.719 29.682,2.532 
		24.915,7.692 19.105,0 15.381,8.143 9.894,3.417 8.222,10.576 4.068,9.54 6.443,17.875 	"/>
</g>
</svg>
